<?xml version="1.0" encoding="UTF-8"?>
<svg id="Warstwa_1" data-name="Warstwa 1" xmlns="http://www.w3.org/2000/svg" viewBox="0 0 82.79 25.33">
  <defs>
    <style>
      .cls-1 {
        fill: #a3c572;
        stroke-width: 0px;
        width: "auto";
        height: "auto";
      }
    </style>
  </defs>
  <g>
    <path class="cls-1" d="M4.36.05c.88,0,1.69.17,2.42.79.77.64,1.24,1.64,1.24,2.88s-.51,2.32-1.35,2.96c-.71.57-1.54.72-2.39.72H1.69v3.29c0,.11-.09.19-.18.19H.18c-.09,0-.18-.08-.18-.19V.25C0,.14.09.05.18.05h4.17ZM5.54,2.02c-.41-.3-.88-.41-1.41-.41H1.69v4.23h2.31c.53,0,1.06-.08,1.48-.37.48-.33.8-.94.8-1.75s-.29-1.37-.76-1.7Z"/>
    <path class="cls-1" d="M15.41,6.72l2.53,3.81c.09.16.12.33-.09.33h-1.47c-.17,0-.27-.03-.36-.21l-2.44-3.78h-2.27v3.8c0,.11-.09.19-.18.19h-1.33c-.09,0-.18-.08-.18-.19V.25c0-.11.09-.21.18-.21h4.25c1,0,1.88.16,2.56.67.76.57,1.21,1.53,1.21,2.75,0,1.1-.41,1.99-1.18,2.61-.39.33-.79.52-1.23.65ZM11.31,1.56v3.83h2.45c.65,0,1.16-.06,1.59-.33.44-.27.74-.78.74-1.57s-.27-1.29-.71-1.57c-.41-.29-.92-.35-1.48-.35h-2.59Z"/>
    <path class="cls-1" d="M24.26,1.62h-5.34c-.11,0-.18-.08-.18-.19V.25c0-.11.08-.21.18-.21h7.94c.12,0,.2.08.2.17,0,.05-.02.08-.05.13l-5.66,8.95h5.63c.11,0,.18.1.18.19v1.19c0,.11-.08.19-.18.19h-8.24c-.12,0-.18-.06-.18-.16,0-.05,0-.1.03-.13L24.26,1.62Z"/>
    <path class="cls-1" d="M34.95.25c.08-.13.15-.21.3-.21h1.53c.2,0,.23.16.14.32l-3.89,5.88v4.43c0,.11-.09.19-.2.19h-1.32c-.11,0-.18-.08-.18-.19v-4.43L27.47.37c-.11-.16-.08-.32.14-.32h1.5c.17,0,.24.06.32.21l2.77,4.23,2.77-4.23Z"/>
    <path class="cls-1" d="M35.84,10c-.09-.08-.12-.17-.06-.29l.62-1.08c.06-.1.15-.14.26-.05.59.56,1.23.87,1.92.87.62,0,1.19-.19,1.59-.6.41-.43.61-1.1.61-2.03V.25c0-.11.08-.21.18-.21h1.32c.11,0,.2.1.2.21v6.71c0,1.48-.45,2.5-1.18,3.15-.71.64-1.66.92-2.69.92-1.09,0-2.07-.45-2.75-1.03Z"/>
    <path class="cls-1" d="M45.34,10.66c-.05.14-.14.21-.3.21h-1.3c-.12,0-.17-.06-.17-.14,0-.05.02-.1.03-.16L47.32.21c.05-.14.14-.21.29-.21h1.39c.17,0,.24.06.3.21l3.68,10.36s.05.11.05.16c0,.08-.05.14-.18.14h-1.33c-.17,0-.26-.06-.3-.21l-.77-2.23h-4.31l-.79,2.23ZM48.29,2.16l-1.74,4.85h3.46l-1.72-4.85Z"/>
    <path class="cls-1" d="M58.94,1.62h-5.34c-.11,0-.18-.08-.18-.19V.25c0-.11.08-.21.18-.21h7.94c.12,0,.2.08.2.17,0,.05-.02.08-.05.13l-5.66,8.95h5.63c.11,0,.18.1.18.19v1.19c0,.11-.08.19-.18.19h-8.24c-.12,0-.18-.06-.18-.16,0-.05,0-.1.03-.13l5.67-8.96Z"/>
    <path class="cls-1" d="M70.58.25c0-.11.08-.21.18-.21h1.24c.11,0,.2.1.2.21v10.43c0,.11-.09.19-.2.19h-1.18c-.15,0-.23-.03-.33-.21l-5.73-7.68v7.69c0,.11-.08.19-.18.19h-1.26c-.09,0-.18-.08-.18-.19V.25c0-.11.09-.21.18-.21h1.18c.15,0,.23.05.35.21l5.73,7.69V.25Z"/>
    <path class="cls-1" d="M75.11,10.66c-.05.14-.14.21-.3.21h-1.3c-.12,0-.17-.06-.17-.14,0-.05.02-.1.03-.16L77.09.21c.05-.14.14-.21.29-.21h1.39c.17,0,.24.06.3.21l3.68,10.36s.05.11.05.16c0,.08-.05.14-.18.14h-1.33c-.17,0-.26-.06-.3-.21l-.77-2.23h-4.31l-.79,2.23ZM78.06,2.16l-1.74,4.85h3.46l-1.72-4.85Z"/>
    <path class="cls-1" d="M8.2,14.46c0-.06.06-.11.11-.11h.5c.06,0,.11.05.11.11v10.6c0,.06-.05.11-.11.11h-.51c-.09,0-.14-.02-.21-.11L.82,15.58v9.49c0,.06-.06.11-.11.11H.21c-.06,0-.11-.05-.11-.11v-10.6c0-.06.05-.11.11-.11h.5c.09,0,.14.03.2.13l7.29,9.5v-9.52Z"/>
    <path class="cls-1" d="M10.92,25.06c-.03.06-.08.11-.15.11h-.5c-.06,0-.11-.03-.11-.08,0-.03,0-.06.03-.13l4.13-10.52c.03-.11.08-.14.17-.14h.53c.09,0,.14.03.17.14l4.13,10.51s.05.11.05.14c0,.05-.05.08-.11.08h-.53c-.09,0-.14-.05-.15-.11l-1.1-2.8h-5.46l-1.09,2.8ZM14.75,15.24l-2.53,6.41h5.05l-2.53-6.41Z"/>
    <path class="cls-1" d="M26.33,14.35c.06,0,.11.05.11.11v.46s-.05.11-.11.11h-3.65v10.03c0,.06-.05.11-.09.11h-.53s-.11-.05-.11-.11v-10.03h-3.63c-.06,0-.11-.06-.11-.11v-.46c0-.06.05-.11.11-.11h8Z"/>
    <path class="cls-1" d="M35.48,14.46c0-.06.05-.11.11-.11h.51c.06,0,.11.05.11.11v6.44c0,1.29-.35,2.37-1.01,3.12-.74.84-1.86,1.32-3.28,1.32s-2.54-.48-3.27-1.32c-.67-.75-1.03-1.83-1.03-3.12v-6.44c0-.06.06-.11.11-.11h.53s.09.05.09.11v6.33c0,1.18.32,2.13.91,2.8.62.7,1.51,1.06,2.66,1.06s2.06-.37,2.66-1.06c.59-.67.91-1.62.91-2.8v-6.33Z"/>
    <path class="cls-1" d="M43.07,20.71l3.24,4.28c.06.1.06.19-.06.19h-.57c-.12,0-.15-.02-.21-.11l-3.25-4.34h-2.93v4.34c0,.06-.05.11-.11.11h-.51c-.06,0-.11-.05-.11-.11v-10.6c0-.06.05-.11.11-.11h3.92c.98,0,1.75.1,2.47.57.74.48,1.23,1.32,1.23,2.62s-.5,2.07-1.23,2.57c-.59.41-1.16.56-1.97.59ZM39.28,15v5.07h3.1c.85,0,1.53-.05,2.1-.4.6-.38,1.04-1.03,1.04-2.13s-.42-1.76-1.01-2.13c-.59-.35-1.26-.41-2.07-.41h-3.16Z"/>
    <path class="cls-1" d="M47.67,25.06c-.03.06-.08.11-.15.11h-.5c-.06,0-.11-.03-.11-.08,0-.03,0-.06.03-.13l4.13-10.52c.03-.11.08-.14.17-.14h.53c.09,0,.14.03.17.14l4.13,10.51s.05.11.05.14c0,.05-.05.08-.11.08h-.53c-.09,0-.14-.05-.15-.11l-1.1-2.8h-5.46l-1.09,2.8ZM51.5,15.24l-2.53,6.41h5.05l-2.53-6.41Z"/>
  </g>
  <path class="cls-1" d="M77.34,14.31h-15.82c-3.01,0-5.45,2.44-5.45,5.45s2.44,5.45,5.45,5.45h15.82c3.01,0,5.45-2.44,5.45-5.45s-2.44-5.45-5.45-5.45ZM68.04,24.22c-.53-.55-1.29-1.76-2.15-4.37,0,0,.7,2.98,1.61,4.37-.69-.31-1.96-1.02-2.47-2.24-.7-1.71.38-3.78.38-3.78,0,0,1.86.6,2.71,2.01-.14,1.08.04,2.16.27,2.98-.12.45-.26.81-.35,1.02ZM73.67,21.12c-.79,1.84-2.73,2.89-3.78,3.34,1.41-2.08,2.53-6.57,2.53-6.57-1.36,3.93-2.53,5.73-3.35,6.55-.35-.83-1.26-3.32-.36-5.43,1.1-2.57,4.46-3.6,4.46-3.6,0,0,1.58,3.14.49,5.71Z"/>
</svg>