<?xml version="1.0" encoding="UTF-8"?>
<svg id="Warstwa_1" data-name="Warstwa 1" xmlns="http://www.w3.org/2000/svg" viewBox="0 0 745.05 565.22">
  <defs>
    <style>
      .cls-1 {
        fill: #fff;
        stroke-width: 0px;
      }
    </style>
  </defs>
  <path class="cls-1" d="m467.58,518.46h-232.2v46.76h274.27v-46.76h-42.07,0Zm-8.59-16.74v-55.13h-172.94v55.13h172.94ZM9.87,311.22h169.97l7.69-87.92H25.88s-16.01,87.92-16.01,87.92Zm186.77,0h167.52v-87.92h-159.83l-7.69,87.92Zm184.26,0h167.52l-7.69-87.92h-159.83v87.92Zm184.32,0h169.97l-16.01-87.92h-161.65l7.69,87.92h0Zm173.02,16.75h-171.56l8.91,101.87h109.84c9.22,0,17.73-1.82,25.33-5.38,7.61-3.56,14.49-8.94,20.39-16.01,5.87-7,9.9-14.73,12.06-22.91,2.14-8.17,2.44-16.9.8-25.91l-5.77-31.66h0Zm-188.36,0h-168.98v101.87h177.89l-8.91-101.87h0Zm-185.72,0h-168.98l-8.91,101.87h177.89v-101.87Zm-185.78,0H6.82l-5.77,31.66c-1.64,9.01-1.34,17.74.8,25.91,2.12,8.03,6.04,15.63,11.89,22.72,6.07,7.26,12.95,12.64,20.56,16.2,7.6,3.56,16.11,5.38,25.33,5.38h109.84l8.91-101.87ZM47.99,101.87h150.17L207.07,0h-90.84c-14.55,0-27.89,5.07-38.22,13.68-10.36,8.65-17.77,20.88-20.36,35.15l-9.66,53.04Zm166.97,0h149.2V0h-140.29l-8.91,101.87h0Zm165.94,0h149.2L521.19,0h-140.29v101.87h0Zm166,0h150.17l-9.66-53.04c-2.59-14.27-10-26.5-20.36-35.15-10.33-8.61-23.67-13.68-38.22-13.68h-90.84l8.91,101.87h0Zm153.22,16.74h-151.76l7.69,87.94h160.09l-16.02-87.94Zm-168.56,0h-150.66v87.94h158.36l-7.7-87.94Zm-167.4,0h-150.66l-7.7,87.94h158.36v-87.94h0Zm-167.46,0H44.94l-16.02,87.94h160.09l7.69-87.94Z"/>
</svg>