<?xml version="1.0" encoding="UTF-8"?>
<svg id="Warstwa_1" data-name="Warstwa 1" xmlns="http://www.w3.org/2000/svg" viewBox="0 0 428.46 430.01">
  <defs>
    <style>
      .cls-1 {
        fill: #fff;
        stroke-width: 0px;
      }
    </style>
  </defs>
  <path class="cls-1" d="m342.37,430.01c-4.63,0-9.08-1.84-12.35-5.12l-56.31-56.31-50.62,50.24h0c-4.29,4.26-10.48,5.99-16.37,4.59-5.88-1.41-10.62-5.76-12.52-11.5L97.16,119.23h0c-2.09-6.29-.43-13.23,4.28-17.9,4.71-4.67,11.66-6.27,17.94-4.13l291.13,99.37c5.72,1.95,10.02,6.72,11.38,12.6,1.36,5.88-.41,12.05-4.7,16.31l-50.06,49.87,56.22,56.22c3.28,3.28,5.12,7.72,5.12,12.35s-1.84,9.08-5.12,12.35l-68.62,68.61c-3.27,3.28-7.72,5.12-12.35,5.12h0Zm-68.62-103.56c4.64,0,9.08,1.84,12.35,5.12l56.26,56.27,43.92-43.92-56.24-56.24h0c-3.28-3.28-5.13-7.73-5.13-12.37s1.85-9.09,5.13-12.36l42.6-42.39-231.25-78.93,77.1,232.53,42.96-42.65c3.27-3.24,7.7-5.06,12.3-5.05h0Z"/>
  <path class="cls-1" d="m102.94,191.76c-19.51-2.7-37.31-12.61-49.88-27.77-12.56-15.17-19-34.5-18.02-54.17.97-19.67,9.28-38.27,23.27-52.12,14-13.85,32.69-21.96,52.37-22.73,19.68-.76,38.94,5.88,53.97,18.6,15.03,12.73,24.75,30.62,27.25,50.17l35.56,12.16v-2.15C227.46,51.02,176.45,0,113.73,0S0,51.02,0,113.74s51.02,113.73,113.73,113.73h1.02l-11.82-35.71Z"/>
</svg>