<?xml version="1.0" encoding="UTF-8"?>
<svg id="Warstwa_1" data-name="Warstwa 1" xmlns="http://www.w3.org/2000/svg" viewBox="0 0 364.07 508.83">
  <defs>
    <style>
      .cls-1 {
        fill: #fff;
        stroke-width: 0px;
      }
    </style>
  </defs>
  <path class="cls-1" d="m102.94,231.17c-19.51-2.7-37.31-12.61-49.88-27.77-12.56-15.17-19-34.5-18.02-54.17.97-19.67,9.28-38.27,23.27-52.12,14-13.85,32.69-21.96,52.37-22.73,19.68-.76,38.94,5.88,53.97,18.6,15.03,12.73,24.75,30.62,27.25,50.17l35.56,12.16v-2.15c0-62.71-51.02-113.74-113.73-113.74S0,90.43,0,153.15s51.02,113.73,113.73,113.73h1.02l-11.82-35.71Z"/>
  <path class="cls-1" d="m346.5,206.62h-79.2l47.09-185.15c4.28-17.66-18.73-29.43-30.5-14.98L68.24,273.51c-9.1,11.24-1.07,28.36,13.38,28.36h79.73l-47.09,185.15c-4.82,18.19,18.73,29.97,30.5,14.98l215.12-266.49c9.63-11.77,1.61-28.9-13.38-28.9Z"/>
</svg>