<?xml version="1.0" encoding="UTF-8"?>
<svg id="Warstwa_1" data-name="Warstwa 1" xmlns="http://www.w3.org/2000/svg" viewBox="0 0 512 416">
  <defs>
    <style>
      .cls-1 {
        fill: #fff;
        stroke-width: 0px;
      }
    </style>
  </defs>
  <path class="cls-1" d="m481.76,0H30.08C13.44,0,0,13.44,0,30.08v291.84c0,16.64,13.44,30.08,30.08,30.08h451.68c16.64,0,30.24-13.44,30.24-30.08V30.08c0-16.64-13.6-30.08-30.23-30.08h0ZM192,32.96c27.68,3.04,53.12,13.92,73.92,30.56l-23.04,22.88c-14.56-10.88-32-18.4-50.88-21.12v-32.32Zm27.2,163.68c.64-1.6,1.28-3.04,1.92-4.64h33.28c-2.08,10.24-6.24,19.68-11.68,28l-23.52-23.36Zm.8,46.08c-8.32,5.44-17.76,9.6-28,11.68v-33.28c1.6-.64,3.04-1.28,4.64-1.92l23.36,23.52Zm1.12-82.72c-.64-1.6-1.28-3.04-1.92-4.64l23.52-23.36c5.44,8.32,9.6,17.76,11.68,28h-33.28Zm-29.12-62.4c10.24,2.08,19.68,6.24,28,11.68l-23.36,23.52c-1.6-.64-3.04-1.28-4.64-1.92v-33.28Zm-32-64.64v32.32c-18.88,2.72-36.32,10.24-50.88,21.12l-22.72-22.72c20.64-16.48,45.92-27.52,73.6-30.72h0Zm-29.12,127.04h-33.28c2.08-10.24,6.24-19.68,11.68-28l23.52,23.36c-.64,1.6-1.28,3.04-1.92,4.64h0Zm1.92,36.64l-23.52,23.36c-5.44-8.32-9.6-17.76-11.68-28h33.28c.64,1.6,1.28,3.04,1.92,4.64h0Zm-.8-87.36c8.32-5.44,17.76-9.6,28-11.68v33.28c-1.6.64-3.04,1.28-4.64,1.92l-23.36-23.52Zm-68.16-22.88l22.56,22.72c-10.88,14.56-18.4,32-21.12,50.88h-32c3.04-27.68,13.92-52.96,30.56-73.6Zm-30.56,105.6h32c2.72,18.88,10.24,36.32,21.12,50.88l-22.56,22.72c-16.64-20.64-27.52-45.92-30.56-73.6h0Zm126.72,127.04c-27.68-3.2-52.96-14.24-73.6-30.72l22.72-22.72c14.56,10.88,32,18.4,50.88,21.12v32.32Zm0-64.64c-10.24-2.08-19.68-6.24-28-11.68l23.36-23.52c1.6.64,3.04,1.28,4.64,1.92v33.28Zm16-62.4c-8.8,0-16-7.2-16-16s7.2-16,16-16,16,7.2,16,16-7.2,16-16,16Zm16,127.04v-32.32c18.88-2.72,36.32-10.24,50.88-21.12l23.04,22.88c-20.8,16.64-46.24,27.52-73.92,30.56Zm96.64-53.12l-23.04-23.04c10.88-14.56,18.4-32,21.12-50.88h32.64c-3.04,27.84-14.08,53.12-30.72,73.92Zm-1.92-105.92c-2.72-18.88-10.24-36.32-21.12-50.88l23.04-23.04c16.64,20.8,27.68,46.08,30.72,73.92h-32.64Zm177.28,160h-64c-8.8,0-16-7.2-16-16s7.2-16,16-16h64c8.8,0,16,7.2,16,16s-7.2,16-16,16Zm0-64h-64c-8.8,0-16-7.2-16-16s7.2-16,16-16h64c8.8,0,16,7.2,16,16s-7.2,16-16,16Z"/>
  <path class="cls-1" d="m415.14,407.68c0,4.64,3.68,8.32,8.32,8.32h47.36c4.48,0,8.32-3.68,8.32-8.32v-23.68h-64v23.68Z"/>
  <path class="cls-1" d="m31.94,407.68c0,4.64,3.68,8.32,8.32,8.32h47.36c4.64,0,8.32-3.68,8.32-8.32v-23.68H31.94v23.68Z"/>
</svg>