<?xml version="1.0" encoding="UTF-8"?>
<svg id="Warstwa_1" data-name="Warstwa 1" xmlns="http://www.w3.org/2000/svg" viewBox="0 0 541.44 522.04">
  <defs>
    <style>
      .cls-1 {
        fill: #ffed00;
      }

      .cls-2 {
        fill: #1d1d1b;
      }
    </style>
  </defs>
  <polygon class="cls-1" points="0 97.37 30.08 114.73 30.08 80.01 0 97.37"/>
  <polyline class="cls-2" points="187.49 187.47 187.49 522.04 97.38 432.04 97.38 187.48 187.49 187.48"/>
  <polyline class="cls-2" points="477.73 520.67 240.84 283.79 368.28 283.79 541.44 456.95 477.73 520.67"/>
  <path class="cls-2" d="m187.49,187.48h183.06c12.73,0,24.73,1.94,35.29,5.27,7.92,2.49,15.03,5.76,21.05,9.45,4.51,2.76,8.4,5.75,11.61,8.77,2.41,2.27,4.43,4.55,6.09,6.77,2.49,3.34,4.13,6.5,5.17,9.42,1.03,2.93,1.49,5.62,1.5,8.48,0,2.26-.3,4.4-.92,6.66-.55,1.97-1.36,4.02-2.52,6.19-2.02,3.79-5.15,7.94-9.58,12.06-3.31,3.08-7.34,6.13-12,8.92-6.99,4.2-15.43,7.82-24.86,10.35-9.43,2.53-19.85,3.97-30.82,3.97v90.11c21.85,0,42.86-3.3,62.36-9.44,14.62-4.61,28.4-10.81,41.04-18.55,9.48-5.81,18.32-12.48,26.33-20.03,6.01-5.66,11.56-11.82,16.53-18.49,7.45-9.99,13.6-21.13,17.89-33.24,4.29-12.1,6.66-25.17,6.65-38.53,0-10.56-1.47-20.94-4.21-30.79-2.4-8.62-5.75-16.84-9.87-24.54-7.21-13.48-16.7-25.35-27.66-35.55-8.23-7.66-17.31-14.4-27.05-20.24-14.61-8.76-30.71-15.5-47.85-20.1-17.14-4.6-35.35-7.05-54.16-7.05h-183.06v90.11h0Z"/>
  <polygon class="cls-2" points="368.28 283.79 370.58 283.79 371.33 285.85 370.5 286.73 368.28 283.79"/>
  <polygon class="cls-1" points="146.05 13.04 115.99 30.41 146.05 47.76 146.05 13.04"/>
  <polygon class="cls-1" points="181.7 48.68 146.98 48.68 164.34 78.76 181.7 48.68"/>
  <polygon class="cls-1" points="48.69 181.69 78.76 164.34 48.69 146.97 48.69 181.69"/>
  <polygon class="cls-1" points="13.05 146.05 47.77 146.05 30.41 115.98 13.05 146.05"/>
  <polygon class="cls-1" points="13.05 48.68 30.41 78.76 47.77 48.68 13.05 48.68"/>
  <polygon class="cls-1" points="48.69 13.04 48.69 47.76 78.76 30.41 48.69 13.04"/>
  <polygon class="cls-1" points="97.38 0 80.01 30.07 114.73 30.07 97.38 0"/>
  <circle class="cls-1" cx="97.38" cy="97.37" r="58.85"/>
</svg>